<?xml version="1.0" encoding="UTF-8"?>
<svg version="1.1" xmlns="http://www.w3.org/2000/svg" width="500" height="500">
<path d="M0 0 C0.73179427 0.00223072 1.46358853 0.00446144 2.21755838 0.00675976 C2.98949864 0.00519977 3.76143889 0.00363978 4.55677128 0.00203252 C7.16324241 -0.00198051 9.76965608 0.00121332 12.37612772 0.00434887 C14.23669834 0.00299497 16.09726869 0.0012151 17.95783854 -0.00096118 C23.0258733 -0.00553678 28.0938878 -0.00374544 33.16192293 -0.0005821 C38.45325512 0.00194085 43.74458551 -0.00039585 49.03591776 -0.00196826 C57.92357557 -0.00379015 66.81122508 -0.00138315 75.69888163 0.00337231 C85.99001989 0.00881497 96.28113834 0.00705232 106.57227612 0.00154591 C115.39092428 -0.00298468 124.20956646 -0.00363604 133.02821541 -0.00101542 C138.30270287 0.00054765 143.57718101 0.00074029 148.85166788 -0.00255191 C153.80917973 -0.00542984 158.76666592 -0.00345638 163.72417498 0.00234234 C165.54917022 0.00367036 167.3741676 0.00327512 169.19916201 0.00107968 C171.67952627 -0.0016302 174.15980695 0.00174728 176.64016581 0.00675976 C177.73785721 0.00341368 177.73785721 0.00341368 178.85772419 0 C183.81471224 0.01959355 183.81471224 0.01959355 184.92886209 1.13374341 C185.0241443 4.11672554 185.05438384 7.07650686 185.04238749 10.0597688 C185.04253351 10.9962576 185.04267954 11.9327464 185.04282999 12.89761364 C185.04213047 16.0088988 185.03433624 19.12012489 185.02651834 22.23139966 C185.0246543 24.38231383 185.02323034 26.53322843 185.02223063 28.68414319 C185.01840434 34.35756098 185.00857312 40.03095336 184.99752665 45.70436108 C184.9873149 51.48876107 184.98273351 57.27316514 184.97769022 63.05757153 C184.96695095 74.41630668 184.9498732 85.77502294 184.92886209 97.13374341 C181.05238423 98.04477253 177.46414458 98.25511477 173.48623514 98.2472688 C172.20528467 98.24719326 170.9243342 98.24711773 169.60456705 98.24703991 C168.21657125 98.24193406 166.82857585 98.23671808 165.44058084 98.23139966 C164.01283172 98.22953315 162.58508194 98.22811035 161.15733194 98.22711194 C157.41072665 98.22330505 153.66416049 98.21349047 149.91757059 98.20240796 C145.41626402 98.19034971 140.91494432 98.18578288 136.41362619 98.17995465 C129.58534432 98.17027766 122.75714823 98.15110836 115.92886209 98.13374341 C115.92886209 84.27374341 115.92886209 70.41374341 115.92886209 56.13374341 C112.26864969 56.16927319 108.60843729 56.20480298 104.83730936 56.24140942 C92.77536379 56.35776422 80.71337392 56.46866093 68.65135145 56.57670701 C61.33456537 56.64238189 54.01780584 56.70995177 46.70107889 56.78193676 C40.326063 56.84465206 33.95102599 56.90385877 27.57593817 56.95879894 C24.19836035 56.98803069 20.82081991 57.01905542 17.44329882 57.05427754 C13.67882683 57.09265443 9.91435109 57.12482959 6.14980936 57.15547192 C5.02196527 57.16841794 3.89412119 57.18136395 2.73210001 57.19470227 C1.71261271 57.20174176 0.6931254 57.20878125 -0.35725546 57.21603405 C-1.24862927 57.22433019 -2.14000309 57.23262633 -3.05838823 57.24117386 C-5.07113791 57.13374341 -5.07113791 57.13374341 -6.07113791 56.13374341 C-6.16995384 54.42055395 -6.1991276 52.70329537 -6.20053244 50.98725903 C-6.20526068 49.34050183 -6.20526068 49.34050183 -6.21008444 47.6604768 C-6.20806021 46.46571728 -6.20603598 45.27095776 -6.20395041 44.03999341 C-6.20490713 42.82299756 -6.20586386 41.60600171 -6.20684958 40.35212719 C-6.20753163 37.77298442 -6.20567562 35.19383994 -6.201509 32.61470044 C-6.19616113 28.65095705 -6.2014532 24.68732699 -6.20785666 20.72358716 C-6.20719588 18.22488899 -6.20591472 15.72619089 -6.20395041 13.22749341 C-6.20597464 12.03273388 -6.20799887 10.83797436 -6.21008444 9.60701001 C-6.20693228 8.50917187 -6.20378012 7.41133374 -6.20053244 6.28022778 C-6.19973684 5.3083955 -6.19894125 4.33656323 -6.19812155 3.33528149 C-5.95563267 -0.86879147 -3.65802553 0.01445912 0 0 Z " fill="#010101" transform="translate(164.07113790512085,170.8662565946579)"/>
<path d="M0 0 C1.41553413 -0.00422974 1.41553413 -0.00422974 2.85966492 -0.00854492 C3.89818604 -0.00652069 4.93670715 -0.00449646 6.00669861 -0.00241089 C7.09778427 -0.00416321 8.18886993 -0.00591553 9.3130188 -0.00772095 C12.93350293 -0.01213621 16.55393855 -0.0092028 20.17442322 -0.00582886 C22.68023691 -0.00650194 25.18605054 -0.007472 27.69186401 -0.00872803 C32.94850666 -0.01020452 38.20513659 -0.00814659 43.46177673 -0.00338745 C49.54662483 0.00205775 55.63143943 0.00029012 61.71628672 -0.00521386 C67.56182239 -0.01029049 73.40734529 -0.00976363 79.252882 -0.00683212 C81.74449607 -0.00616267 84.23611099 -0.0069919 86.72772408 -0.00931168 C90.20224942 -0.01183656 93.67670941 -0.00800006 97.15122986 -0.00241089 C98.71204788 -0.00544724 98.71204788 -0.00544724 100.30439758 -0.00854492 C101.24526718 -0.0057251 102.18613678 -0.00290527 103.15551758 0 C103.97792466 0.00037703 104.80033175 0.00075405 105.64766026 0.0011425 C107.51426697 0.12698364 107.51426697 0.12698364 108.51426697 1.12698364 C108.62022564 4.12975057 108.66104251 7.1096426 108.65953064 10.11306763 C108.66288925 11.05609741 108.66624786 11.9991272 108.66970825 12.97073364 C108.67924922 16.10486143 108.68116292 19.23893597 108.68223572 22.37307739 C108.68544607 24.54162112 108.68880996 26.71016463 108.69232178 28.87870789 C108.6983209 33.430954 108.70016087 37.98318111 108.6995697 42.53543091 C108.69946802 48.38128547 108.71312257 54.22701872 108.73034191 60.07284451 C108.74143625 64.55340642 108.7434897 69.03393877 108.74295998 73.51451302 C108.74414389 75.67037436 108.74858849 77.82623637 108.75629234 79.98208427 C108.76604078 82.99197875 108.76323466 86.00160677 108.75718689 89.01150513 C108.7628064 89.90976517 108.7684259 90.80802521 108.7742157 91.73350525 C108.74258214 97.89866847 108.74258214 97.89866847 106.51426697 100.12698364 C106.51426697 99.46698364 106.51426697 98.80698364 106.51426697 98.12698364 C105.8267334 98.15629471 105.13919983 98.18560577 104.43083191 98.21580505 C82.87027284 99.10406985 61.33108649 99.31493452 39.75401306 99.31228638 C35.10509208 99.3121825 30.45631624 99.32611748 25.80743027 99.34305859 C22.19248245 99.35411943 18.57757136 99.35620785 14.96260834 99.35567665 C13.24494654 99.35685478 11.52728373 99.36126715 9.80963898 99.36900902 C7.43991138 99.37873882 5.07052272 99.37596517 2.70079041 99.36990356 C1.64615852 99.37833282 1.64615852 99.37833282 0.57022095 99.38693237 C-4.25737739 99.35533928 -4.25737739 99.35533928 -6.48573303 97.12698364 C-6.67415058 94.08339838 -6.73736384 91.13143129 -6.71278381 88.08743286 C-6.71307587 87.15079803 -6.71336792 86.21416321 -6.71366882 85.24914551 C-6.71227188 82.14322753 -6.69669352 79.03754738 -6.68104553 75.93167114 C-6.6773167 73.78218721 -6.67446912 71.63270157 -6.67247009 69.48321533 C-6.66482343 63.81799653 -6.64516607 58.15287981 -6.62306213 52.48770142 C-6.60262594 46.70992413 -6.59347315 40.93213039 -6.58338928 35.15432739 C-6.56192115 23.81183455 -6.52777276 12.46941758 -6.48573303 1.12698364 C-4.10434215 -0.0637118 -2.65755935 0.00121778 0 0 Z " fill="#060606" transform="translate(144.48573303222656,251.87301635742188)"/>
<path d="M0 0 C26.73 0 53.46 0 81 0 C81 20.79 81 41.58 81 63 C54.93 62.67 28.86 62.34 2 62 C1.67 62.66 1.34 63.32 1 64 C-0.36239076 61.27521848 -0.11969958 59.13159145 -0.11352539 56.08154297 C-0.11340454 54.82301514 -0.11328369 53.5644873 -0.11315918 52.26782227 C-0.10812321 50.92594351 -0.1029566 49.58406524 -0.09765625 48.2421875 C-0.09664917 47.02539307 -0.09564209 45.80859863 -0.09460449 44.55493164 C-0.08935922 39.99494489 -0.07539804 35.43497153 -0.0625 30.875 C-0.041875 20.68625 -0.02125 10.4975 0 0 Z " fill="#000000" transform="translate(280,288)"/>
<path d="M0 0 C0.721875 0.00257813 1.44375 0.00515625 2.1875 0.0078125 C2.909375 0.00523437 3.63125 0.00265625 4.375 0 C6.1875 0.1328125 6.1875 0.1328125 7.1875 1.1328125 C7.42279412 6.66222426 7.42279412 6.66222426 6.1875 9.1328125 C6.8475 9.4628125 7.5075 9.7928125 8.1875 10.1328125 C7.8575 18.7128125 7.5275 27.2928125 7.1875 36.1328125 C4.2175 36.1328125 1.2475 36.1328125 -1.8125 36.1328125 C-1.8125 27.5528125 -1.8125 18.9728125 -1.8125 10.1328125 C-2.4725 10.1328125 -3.1325 10.1328125 -3.8125 10.1328125 C-3.80089844 10.73609375 -3.78929687 11.339375 -3.77734375 11.9609375 C-3.76832031 12.76015625 -3.75929687 13.559375 -3.75 14.3828125 C-3.73839844 15.17171875 -3.72679687 15.960625 -3.71484375 16.7734375 C-3.8125 19.1328125 -3.8125 19.1328125 -4.37890625 21.3671875 C-4.59353516 22.24117188 -4.59353516 22.24117188 -4.8125 23.1328125 C-4.4825 23.4628125 -4.1525 23.7928125 -3.8125 24.1328125 C-3.74005947 26.15245449 -3.72872812 28.17448374 -3.75 30.1953125 C-3.75902344 31.30003906 -3.76804688 32.40476562 -3.77734375 33.54296875 C-3.78894531 34.39761719 -3.80054688 35.25226563 -3.8125 36.1328125 C-7.1125 36.1328125 -10.4125 36.1328125 -13.8125 36.1328125 C-14.1425 33.1628125 -14.4725 30.1928125 -14.8125 27.1328125 C-16.30993119 28.63024369 -16.14452693 30.12105489 -16.375 32.1953125 C-16.519375 33.4946875 -16.66375 34.7940625 -16.8125 36.1328125 C-19.7825 36.1328125 -22.7525 36.1328125 -25.8125 36.1328125 C-26.00801338 34.52960276 -26.19361983 32.92518264 -26.375 31.3203125 C-26.47941406 30.42699219 -26.58382812 29.53367187 -26.69140625 28.61328125 C-26.8125 26.1328125 -26.8125 26.1328125 -25.8125 23.1328125 C-25.1525 23.1328125 -24.4925 23.1328125 -23.8125 23.1328125 C-24.4725 22.1428125 -25.1325 21.1528125 -25.8125 20.1328125 C-26.2265625 17.43359375 -26.2265625 17.43359375 -26.4375 14.4453125 C-26.51226562 13.45144531 -26.58703125 12.45757812 -26.6640625 11.43359375 C-26.71304688 10.67433594 -26.76203125 9.91507812 -26.8125 9.1328125 C-23.58640955 8.05744902 -21.19072416 7.98905828 -17.8125 8.1328125 C-17.1525 8.4628125 -16.4925 8.7928125 -15.8125 9.1328125 C-15.8125 11.7728125 -15.8125 14.4128125 -15.8125 17.1328125 C-15.1525 17.4628125 -14.4925 17.7928125 -13.8125 18.1328125 C-14.1425 15.1628125 -14.4725 12.1928125 -14.8125 9.1328125 C-11.23739889 8.23903722 -9.56332437 8.1069681 -6.0625 8.5703125 C-5.26328125 8.67214844 -4.4640625 8.77398437 -3.640625 8.87890625 C-3.03734375 8.96269531 -2.4340625 9.04648437 -1.8125 9.1328125 C-1.998125 7.8334375 -2.18375 6.5340625 -2.375 5.1953125 C-2.69140625 2.98046875 -2.69140625 2.98046875 -2.8125 1.1328125 C-1.8125 0.1328125 -1.8125 0.1328125 0 0 Z M-0.8125 7.1328125 C2.0299854 8.70554818 2.0299854 8.70554818 5.1875 9.1328125 C5.1875 8.4728125 5.1875 7.8128125 5.1875 7.1328125 C3.2075 7.1328125 1.2275 7.1328125 -0.8125 7.1328125 Z " fill="#212121" transform="translate(158.8125,363.8671875)"/>
<path d="M0 0 C1.91015625 0.23046875 1.91015625 0.23046875 3.91015625 2.23046875 C3.25015625 4.54046875 2.59015625 6.85046875 1.91015625 9.23046875 C2.5134375 9.13507813 3.11671875 9.0396875 3.73828125 8.94140625 C4.93710937 8.77511719 4.93710937 8.77511719 6.16015625 8.60546875 C6.9490625 8.48945313 7.73796875 8.3734375 8.55078125 8.25390625 C10.91015625 8.23046875 10.91015625 8.23046875 14.91015625 10.23046875 C14.91015625 15.18046875 14.91015625 20.13046875 14.91015625 25.23046875 C16.41172499 22.22733127 16.00296829 19.43979353 15.97265625 16.10546875 C15.96363281 14.82414062 15.95460938 13.5428125 15.9453125 12.22265625 C15.93371094 11.23523438 15.92210937 10.2478125 15.91015625 9.23046875 C19.1523718 8.14973023 21.51418562 8.01370467 24.91015625 8.23046875 C26.91015625 10.23046875 26.91015625 10.23046875 27.0625 13.57421875 C27.00860268 14.96043773 26.93592161 16.34601318 26.84765625 17.73046875 C26.80455322 18.4471875 26.7614502 19.16390625 26.71704102 19.90234375 C26.19702977 26.11176662 24.32392248 30.99014864 20.91015625 36.23046875 C17.1377868 36.70614406 13.66356325 36.92202475 9.91015625 36.23046875 C5.87516619 32.64865252 4.94312559 28.39531547 3.91015625 23.23046875 C3.58015625 27.52046875 3.25015625 31.81046875 2.91015625 36.23046875 C-0.05984375 36.23046875 -3.02984375 36.23046875 -6.08984375 36.23046875 C-6.08984375 27.65046875 -6.08984375 19.07046875 -6.08984375 10.23046875 C-6.74984375 9.90046875 -7.40984375 9.57046875 -8.08984375 9.23046875 C-7.42984375 9.23046875 -6.76984375 9.23046875 -6.08984375 9.23046875 C-6.27546875 7.93109375 -6.46109375 6.63171875 -6.65234375 5.29296875 C-6.96875 3.078125 -6.96875 3.078125 -7.08984375 1.23046875 C-5.19495423 -0.66442077 -2.51845229 0.05027763 0 0 Z M-5.08984375 7.23046875 C-5.08984375 7.89046875 -5.08984375 8.55046875 -5.08984375 9.23046875 C-3.10984375 9.23046875 -1.12984375 9.23046875 0.91015625 9.23046875 C0.91015625 8.57046875 0.91015625 7.91046875 0.91015625 7.23046875 C-1.06984375 7.23046875 -3.04984375 7.23046875 -5.08984375 7.23046875 Z " fill="#2F2F2F" transform="translate(273.08984375,363.76953125)"/>
<path d="M0 0 C0.89589844 0.00322266 1.79179688 0.00644531 2.71484375 0.00976562 C4.12056641 0.02233398 4.12056641 0.02233398 5.5546875 0.03515625 C6.49957031 0.03966797 7.44445312 0.04417969 8.41796875 0.04882812 C10.75527137 0.06063268 13.09244811 0.07709866 15.4296875 0.09765625 C19.46478008 6.9956937 18.56038182 13.76552845 18.1171875 21.53515625 C18.0253418 23.49098633 18.0253418 23.49098633 17.93164062 25.48632812 C17.77903098 28.69113066 17.61126867 31.89438637 17.4296875 35.09765625 C13.7996875 35.09765625 10.1696875 35.09765625 6.4296875 35.09765625 C6.0996875 33.11765625 5.7696875 31.13765625 5.4296875 29.09765625 C4.7696875 31.07765625 4.1096875 33.05765625 3.4296875 35.09765625 C0.1296875 35.09765625 -3.1703125 35.09765625 -6.5703125 35.09765625 C-6.5703125 23.87765625 -6.5703125 12.65765625 -6.5703125 1.09765625 C-4.16971433 -0.10264283 -2.67670601 -0.01694118 0 0 Z M4.4296875 8.09765625 C3.51275789 10.84844509 3.32082667 12.45714538 3.3671875 15.28515625 C3.3878125 16.54328125 3.4084375 17.80140625 3.4296875 19.09765625 C4.4196875 19.42765625 5.4096875 19.75765625 6.4296875 20.09765625 C6.4296875 16.46765625 6.4296875 12.83765625 6.4296875 9.09765625 C5.7696875 8.76765625 5.1096875 8.43765625 4.4296875 8.09765625 Z " fill="#1C1C1C" transform="translate(113.5703125,364.90234375)"/>
<path d="M0 0 C1.051875 -0.00386719 1.051875 -0.00386719 2.125 -0.0078125 C4 0.125 4 0.125 6 1.125 C7.67654729 0.84557545 9.34608154 0.51671753 11 0.125 C11 0.785 11 1.445 11 2.125 C11.66 1.795 12.32 1.465 13 1.125 C15.52643441 0.86690795 18.02996036 0.65990037 20.5625 0.5 C21.26052734 0.4484375 21.95855469 0.396875 22.67773438 0.34375 C24.44947131 0.22689441 26.22501227 0.17110358 28 0.125 C29 1.125 29 1.125 29.1875 4.0625 C29 7.125 29 7.125 27 9.125 C23.875 8.75 23.875 8.75 21 8.125 C21 8.785 21 9.445 21 10.125 C21.99 9.795 22.98 9.465 24 9.125 C26.6875 10.0625 26.6875 10.0625 29 11.125 C29.22466794 12.83126196 29.42894455 14.5402141 29.625 16.25 C29.74101562 17.20132812 29.85703125 18.15265625 29.9765625 19.1328125 C30 22.125 30 22.125 28 28.125 C22.39 28.125 16.78 28.125 11 28.125 C11 22.125 11 22.125 13 20.125 C16.125 20 16.125 20 19 20.125 C16.69 19.465 14.38 18.805 12 18.125 C11.67 15.815 11.34 13.505 11 11.125 C9.02 10.465 7.04 9.805 5 9.125 C5.01160156 10.41277344 5.02320313 11.70054687 5.03515625 13.02734375 C5.0445327 14.70572772 5.05363305 16.38411326 5.0625 18.0625 C5.07087891 18.91263672 5.07925781 19.76277344 5.08789062 20.63867188 C5.09111328 21.44755859 5.09433594 22.25644531 5.09765625 23.08984375 C5.10289307 23.8387085 5.10812988 24.58757324 5.11352539 25.35913086 C5 27.125 5 27.125 4 28.125 C1.03 28.125 -1.94 28.125 -5 28.125 C-5.33 19.215 -5.66 10.305 -6 1.125 C-3.75487738 0.00243869 -2.48543351 -0.00913762 0 0 Z " fill="#1F1F1F" transform="translate(329,371.875)"/>
<path d="M0 0 C0.33 0.66 0.66 1.32 1 2 C2.9490625 1.7215625 2.9490625 1.7215625 4.9375 1.4375 C7.15234375 1.12109375 7.15234375 1.12109375 9 1 C10.77490546 2.77490546 10.23499973 5.37784902 10.31640625 7.78515625 C10.37924805 9.53989258 10.37924805 9.53989258 10.44335938 11.33007812 C10.48267578 12.56177734 10.52199219 13.79347656 10.5625 15.0625 C10.60568359 16.29806641 10.64886719 17.53363281 10.69335938 18.80664062 C10.79984198 21.87097335 10.90185424 24.93539073 11 28 C12.27305556 26.95128747 12.27305556 26.95128747 12.11352539 24.59155273 C12.10567017 23.02836304 12.10567017 23.02836304 12.09765625 21.43359375 C12.09443359 20.30888672 12.09121094 19.18417969 12.08789062 18.02539062 C12.07951172 16.84138672 12.07113281 15.65738281 12.0625 14.4375 C12.05798828 13.24962891 12.05347656 12.06175781 12.04882812 10.83789062 C12.03699675 7.89187774 12.02051287 4.94596319 12 2 C16.05047576 0.64984141 18.7920168 1.37915002 23 2 C23.04937279 6.66307014 23.08570627 11.32598873 23.10986328 15.98925781 C23.11993188 17.57619883 23.13358767 19.16312125 23.15087891 20.75 C23.17509001 23.02869247 23.18647422 25.30714006 23.1953125 27.5859375 C23.20563507 28.29744965 23.21595764 29.00896179 23.22659302 29.74203491 C23.22699422 31.49631665 23.12202209 33.24996709 23 35 C21 37 21 37 19.06054688 37.24291992 C18.28775391 37.23881104 17.51496094 37.23470215 16.71875 37.23046875 C15.45611328 37.22756836 15.45611328 37.22756836 14.16796875 37.22460938 C12.84732422 37.20624023 12.84732422 37.20624023 11.5 37.1875 C10.61957031 37.18685547 9.73914063 37.18621094 8.83203125 37.18554688 C2.28080115 37.14040057 2.28080115 37.14040057 0 36 C-1.17059069 32.48822793 -1.12952308 29.70068757 -1.1328125 25.99609375 C-1.13376923 25.31700455 -1.13472595 24.63791534 -1.13571167 23.93824768 C-1.13639124 22.50513618 -1.13455253 21.07202158 -1.13037109 19.63891602 C-1.12501135 17.44215006 -1.13032782 15.24558779 -1.13671875 13.04882812 C-1.13605809 11.65624955 -1.13477718 10.2636711 -1.1328125 8.87109375 C-1.13168457 7.60193115 -1.13055664 6.33276855 -1.12939453 5.02514648 C-1 2 -1 2 0 0 Z " fill="#1D1D1D" transform="translate(217,363)"/>
<path d="M0 0 C0.74958984 0.00193359 1.49917969 0.00386719 2.27148438 0.00585938 C3.43067383 0.02422852 3.43067383 0.02422852 4.61328125 0.04296875 C5.78987305 0.04393555 5.78987305 0.04393555 6.99023438 0.04492188 C12.78531277 0.09000027 12.78531277 0.09000027 13.92578125 1.23046875 C14.01336128 3.23011857 14.03274701 5.23282985 14.0234375 7.234375 C14.02021484 8.44931641 14.01699219 9.66425781 14.01367188 10.91601562 C14.00529297 12.19541016 13.99691406 13.47480469 13.98828125 14.79296875 C13.98376953 16.07623047 13.97925781 17.35949219 13.97460938 18.68164062 C13.9627767 21.86462897 13.94629193 25.04752637 13.92578125 28.23046875 C10.63428 28.31732162 7.34307165 28.3708077 4.05078125 28.41796875 C3.11363281 28.44310547 2.17648437 28.46824219 1.2109375 28.49414062 C0.31503906 28.50380859 -0.58085937 28.51347656 -1.50390625 28.5234375 C-2.74503174 28.54700317 -2.74503174 28.54700317 -4.01123047 28.57104492 C-4.6920166 28.45865479 -5.37280273 28.34626465 -6.07421875 28.23046875 C-8.30834888 24.87927356 -8.31269637 23.81269325 -8.26953125 19.90625 C-8.26308594 18.87822266 -8.25664062 17.85019531 -8.25 16.79101562 C-8.22486328 15.18323242 -8.22486328 15.18323242 -8.19921875 13.54296875 C-8.19019531 12.45951172 -8.18117188 11.37605469 -8.171875 10.25976562 C-8.14829215 7.58311165 -8.11538001 4.90690078 -8.07421875 2.23046875 C-5.25267748 0.6371603 -3.23617461 -0.01941476 0 0 Z M1.92578125 8.23046875 C1.92578125 12.52046875 1.92578125 16.81046875 1.92578125 21.23046875 C2.58578125 21.23046875 3.24578125 21.23046875 3.92578125 21.23046875 C3.92578125 16.94046875 3.92578125 12.65046875 3.92578125 8.23046875 C3.26578125 8.23046875 2.60578125 8.23046875 1.92578125 8.23046875 Z " fill="#343434" transform="translate(368.07421875,371.76953125)"/>
<path d="M0 0 C0.82113281 -0.00257813 1.64226562 -0.00515625 2.48828125 -0.0078125 C4.6875 0.125 4.6875 0.125 7.6875 1.125 C9.0183911 3.78678221 8.80018993 5.81239396 8.78515625 8.7890625 C8.78193359 9.91054688 8.77871094 11.03203125 8.77539062 12.1875 C8.76701172 13.363125 8.75863281 14.53875 8.75 15.75 C8.74548828 16.93335938 8.74097656 18.11671875 8.73632812 19.3359375 C8.72451467 22.26567507 8.70804258 25.19531272 8.6875 28.125 C5.3875 28.125 2.0875 28.125 -1.3125 28.125 C-1.3125 21.525 -1.3125 14.925 -1.3125 8.125 C-1.9725 8.125 -2.6325 8.125 -3.3125 8.125 C-3.3125 14.725 -3.3125 21.325 -3.3125 28.125 C-6.6125 28.125 -9.9125 28.125 -13.3125 28.125 C-13.3125 19.215 -13.3125 10.305 -13.3125 1.125 C-4.20519051 -0.01341369 -4.20519051 -0.01341369 0 0 Z " fill="#323232" transform="translate(205.3125,371.875)"/>
<path d="M0 0 C0 8.25 0 16.5 0 25 C-3.41826747 26.70913373 -7.23354763 26.18458479 -11 26.1875 C-11.83273438 26.19974609 -12.66546875 26.21199219 -13.5234375 26.22460938 C-14.71839844 26.22750977 -14.71839844 26.22750977 -15.9375 26.23046875 C-16.66839844 26.23457764 -17.39929688 26.23868652 -18.15234375 26.24291992 C-20 26 -20 26 -22 24 C-22.25878906 21.69335938 -22.25878906 21.69335938 -22.265625 18.84375 C-22.26820313 17.82152344 -22.27078125 16.79929687 -22.2734375 15.74609375 C-22.26183594 14.13927734 -22.26183594 14.13927734 -22.25 12.5 C-22.25773438 11.42878906 -22.26546875 10.35757812 -22.2734375 9.25390625 C-22.27085937 8.23167969 -22.26828125 7.20945312 -22.265625 6.15625 C-22.26336914 5.21587891 -22.26111328 4.27550781 -22.25878906 3.30664062 C-22 1 -22 1 -20 -1 C-16.953125 -1.484375 -16.953125 -1.484375 -13.25 -1.75 C-12.03828125 -1.84796875 -10.8265625 -1.9459375 -9.578125 -2.046875 C-6 -2 -6 -2 0 0 Z M-11 6 C-12.31262571 7.08552366 -12.31262571 7.08552366 -12.09765625 9.72265625 C-12.08605469 10.82480469 -12.07445312 11.92695313 -12.0625 13.0625 C-12.05347656 14.16722656 -12.04445312 15.27195312 -12.03515625 16.41015625 C-12.02355469 17.26480469 -12.01195312 18.11945313 -12 19 C-11.01 18.67 -10.02 18.34 -9 18 C-8.94604522 16.37536158 -8.90722805 14.75021459 -8.875 13.125 C-8.84019531 11.76761719 -8.84019531 11.76761719 -8.8046875 10.3828125 C-8.75675164 7.81193006 -8.75675164 7.81193006 -11 6 Z " fill="#212121" transform="translate(190,374)"/>
<path d="M0 0 C1.21945312 0.02835937 2.43890625 0.05671875 3.6953125 0.0859375 C5.51675781 0.10527344 5.51675781 0.10527344 7.375 0.125 C10.60678458 0.44011732 12.90786162 1.07669279 15.8203125 2.4609375 C16.01467741 4.91890603 16.2010867 7.37703044 16.3828125 9.8359375 C16.43888672 10.53460938 16.49496094 11.23328125 16.55273438 11.953125 C16.93359375 17.234375 16.93359375 17.234375 15.8203125 19.4609375 C12.1903125 19.4609375 8.5603125 19.4609375 4.8203125 19.4609375 C4.8203125 19.7909375 4.8203125 20.1209375 4.8203125 20.4609375 C8.4503125 20.7909375 12.0803125 21.1209375 15.8203125 21.4609375 C15.8203125 23.7709375 15.8203125 26.0809375 15.8203125 28.4609375 C12.52881125 28.54779037 9.2376029 28.60127645 5.9453125 28.6484375 C5.00816406 28.67357422 4.07101562 28.69871094 3.10546875 28.72460938 C2.20957031 28.73427734 1.31367188 28.74394531 0.390625 28.75390625 C-0.85050049 28.77747192 -0.85050049 28.77747192 -2.11669922 28.80151367 C-2.79748535 28.68912354 -3.47827148 28.5767334 -4.1796875 28.4609375 C-7.0866128 24.10054955 -6.50943031 20.15144974 -6.4921875 15.0234375 C-6.50830078 14.06888672 -6.52441406 13.11433594 -6.54101562 12.13085938 C-6.54166016 11.20982422 -6.54230469 10.28878906 -6.54296875 9.33984375 C-6.54594971 8.5001001 -6.54893066 7.66035645 -6.55200195 6.79516602 C-5.86139133 2.46537707 -4.3228115 0.62664835 0 0 Z M4.8203125 8.4609375 C4.4903125 9.7809375 4.1603125 11.1009375 3.8203125 12.4609375 C4.8103125 12.4609375 5.8003125 12.4609375 6.8203125 12.4609375 C6.4903125 11.1409375 6.1603125 9.8209375 5.8203125 8.4609375 C5.4903125 8.4609375 5.1603125 8.4609375 4.8203125 8.4609375 Z " fill="#212121" transform="translate(306.1796875,371.5390625)"/>
<path d="M0 0 C0.76441406 -0.020625 1.52882812 -0.04125 2.31640625 -0.0625 C3.06277344 -0.06765625 3.80914062 -0.0728125 4.578125 -0.078125 C5.2577832 -0.0874707 5.93744141 -0.09681641 6.63769531 -0.10644531 C8.75 0.25 8.75 0.25 13.75 3.25 C13.42 11.5 13.09 19.75 12.75 28.25 C9.78 28.25 6.81 28.25 3.75 28.25 C3.42 21.98 3.09 15.71 2.75 9.25 C2.42 9.25 2.09 9.25 1.75 9.25 C1.42 15.52 1.09 21.79 0.75 28.25 C-2.22 28.25 -5.19 28.25 -8.25 28.25 C-8.44581346 23.77115561 -8.6302636 19.29191574 -8.8125 14.8125 C-8.86857422 13.53310547 -8.92464844 12.25371094 -8.98242188 10.93554688 C-9.03076172 9.72060547 -9.07910156 8.50566406 -9.12890625 7.25390625 C-9.1760376 6.12799072 -9.22316895 5.0020752 -9.27172852 3.84204102 C-9.22575262 -1.64252226 -4.29739013 0.0284125 0 0 Z " fill="#1A1A1A" transform="translate(251.25,371.75)"/>
<path d="M0 0 C0.73179427 0.00223072 1.46358853 0.00446144 2.21755838 0.00675976 C2.98949864 0.00519977 3.76143889 0.00363978 4.55677128 0.00203252 C7.16324241 -0.00198051 9.76965608 0.00121332 12.37612772 0.00434887 C14.23669834 0.00299497 16.09726869 0.0012151 17.95783854 -0.00096118 C23.0258733 -0.00553678 28.0938878 -0.00374544 33.16192293 -0.0005821 C38.45325512 0.00194085 43.74458551 -0.00039585 49.03591776 -0.00196826 C57.92357557 -0.00379015 66.81122508 -0.00138315 75.69888163 0.00337231 C85.99001989 0.00881497 96.28113834 0.00705232 106.57227612 0.00154591 C115.39092428 -0.00298468 124.20956646 -0.00363604 133.02821541 -0.00101542 C138.30270287 0.00054765 143.57718101 0.00074029 148.85166788 -0.00255191 C153.80917973 -0.00542984 158.76666592 -0.00345638 163.72417498 0.00234234 C165.54917022 0.00367036 167.3741676 0.00327512 169.19916201 0.00107968 C171.67952627 -0.0016302 174.15980695 0.00174728 176.64016581 0.00675976 C177.73785721 0.00341368 177.73785721 0.00341368 178.85772419 0 C183.81471224 0.01959355 183.81471224 0.01959355 184.92886209 1.13374341 C185.0241443 4.11672554 185.05438384 7.07650686 185.04238749 10.0597688 C185.04253351 10.9962576 185.04267954 11.9327464 185.04282999 12.89761364 C185.04213047 16.0088988 185.03433624 19.12012489 185.02651834 22.23139966 C185.0246543 24.38231383 185.02323034 26.53322843 185.02223063 28.68414319 C185.01840434 34.35756098 185.00857312 40.03095336 184.99752665 45.70436108 C184.9873149 51.48876107 184.98273351 57.27316514 184.97769022 63.05757153 C184.96695095 74.41630668 184.9498732 85.77502294 184.92886209 97.13374341 C184.59886209 97.13374341 184.26886209 97.13374341 183.92886209 97.13374341 C183.59886209 66.11374341 183.26886209 35.09374341 182.92886209 3.13374341 C182.26886209 3.79374341 181.60886209 4.45374341 180.92886209 5.13374341 C180.92886209 4.14374341 180.92886209 3.15374341 180.92886209 2.13374341 C119.54886209 2.13374341 58.16886209 2.13374341 -5.07113791 2.13374341 C-5.07113791 19.95374341 -5.07113791 37.77374341 -5.07113791 56.13374341 C-5.40113791 56.13374341 -5.73113791 56.13374341 -6.07113791 56.13374341 C-6.09640353 48.31921589 -6.11396896 40.50469882 -6.12606955 32.69013989 C-6.13111173 30.02932859 -6.13794526 27.36852009 -6.14657736 24.70771801 C-6.15864799 20.89268825 -6.1643672 17.07769497 -6.16879416 13.26264966 C-6.17395544 12.06475308 -6.17911673 10.8668565 -6.18443441 9.63266003 C-6.18450994 8.5315942 -6.18458548 7.43052838 -6.1846633 6.29609692 C-6.18688391 5.32124844 -6.18910452 4.34639996 -6.19139242 3.34201062 C-5.96201253 -0.87015626 -3.66255754 0.01447704 0 0 Z " fill="#717171" transform="translate(164.07113790512085,170.8662565946579)"/>
<path d="M0 0 C1.20061105 3.60183315 1.02185426 6.77688588 0.87890625 10.51171875 C0.85529526 11.23994339 0.83168427 11.96816803 0.80735779 12.71846008 C0.7308565 15.0416784 0.6467744 17.36455193 0.5625 19.6875 C0.50926573 21.26365507 0.45652542 22.83982691 0.40429688 24.41601562 C0.27525978 28.2775616 0.13942375 32.13881566 0 36 C-2.97 36 -5.94 36 -9 36 C-9 24.45 -9 12.9 -9 1 C-6.04335481 -0.4783226 -3.25770263 -0.06032783 0 0 Z " fill="#181818" transform="translate(393,364)"/>
<path d="M0 0 C0.721875 0.00257813 1.44375 0.00515625 2.1875 0.0078125 C2.909375 0.00523437 3.63125 0.00265625 4.375 0 C6.1875 0.1328125 6.1875 0.1328125 7.1875 1.1328125 C7.42279412 6.66222426 7.42279412 6.66222426 6.1875 9.1328125 C6.8475 9.4628125 7.5075 9.7928125 8.1875 10.1328125 C7.8575 18.7128125 7.5275 27.2928125 7.1875 36.1328125 C4.2175 36.1328125 1.2475 36.1328125 -1.8125 36.1328125 C-1.97974111 31.16677537 -2.14033783 26.20058572 -2.29467773 21.23413086 C-2.34817115 19.54331627 -2.40350598 17.85255892 -2.46069336 16.16186523 C-2.54240041 13.73694203 -2.61756395 11.31189256 -2.69140625 8.88671875 C-2.71844131 8.12629776 -2.74547638 7.36587677 -2.77333069 6.58241272 C-2.82541299 4.76657916 -2.82436585 2.94935407 -2.8125 1.1328125 C-1.8125 0.1328125 -1.8125 0.1328125 0 0 Z M-0.8125 7.1328125 C2.0299854 8.70554818 2.0299854 8.70554818 5.1875 9.1328125 C5.1875 8.4728125 5.1875 7.8128125 5.1875 7.1328125 C3.2075 7.1328125 1.2275 7.1328125 -0.8125 7.1328125 Z " fill="#181818" transform="translate(158.8125,363.8671875)"/>
<path d="M0 0 C1.91015625 0.23046875 1.91015625 0.23046875 3.91015625 2.23046875 C3.6389858 3.90837086 3.29131089 5.57408412 2.91015625 7.23046875 C2.76551672 9.50566053 2.66401833 11.78379849 2.59375 14.0625 C2.55185547 15.35478516 2.50996094 16.64707031 2.46679688 17.97851562 C2.42699273 19.33333067 2.38728034 20.68814842 2.34765625 22.04296875 C2.30441902 23.4173298 2.26080313 24.79167899 2.21679688 26.16601562 C2.11085835 29.52073544 2.00878436 32.87552735 1.91015625 36.23046875 C-0.72984375 36.23046875 -3.36984375 36.23046875 -6.08984375 36.23046875 C-6.08984375 27.65046875 -6.08984375 19.07046875 -6.08984375 10.23046875 C-6.74984375 9.90046875 -7.40984375 9.57046875 -8.08984375 9.23046875 C-7.42984375 9.23046875 -6.76984375 9.23046875 -6.08984375 9.23046875 C-6.27546875 7.93109375 -6.46109375 6.63171875 -6.65234375 5.29296875 C-6.96875 3.078125 -6.96875 3.078125 -7.08984375 1.23046875 C-5.19495423 -0.66442077 -2.51845229 0.05027763 0 0 Z M-5.08984375 7.23046875 C-5.08984375 7.89046875 -5.08984375 8.55046875 -5.08984375 9.23046875 C-3.10984375 9.23046875 -1.12984375 9.23046875 0.91015625 9.23046875 C0.91015625 8.57046875 0.91015625 7.91046875 0.91015625 7.23046875 C-1.06984375 7.23046875 -3.04984375 7.23046875 -5.08984375 7.23046875 Z " fill="#040404" transform="translate(273.08984375,363.76953125)"/>
<path d="M0 0 C1.60407328 -0.02708567 3.2082785 -0.04643483 4.8125 -0.0625 C5.70582031 -0.07410156 6.59914062 -0.08570313 7.51953125 -0.09765625 C10 0 10 0 13 1 C14.3308911 3.66178221 14.11268993 5.68739396 14.09765625 8.6640625 C14.09443359 9.78554688 14.09121094 10.90703125 14.08789062 12.0625 C14.07951172 13.238125 14.07113281 14.41375 14.0625 15.625 C14.05798828 16.80835938 14.05347656 17.99171875 14.04882812 19.2109375 C14.03701467 22.14067507 14.02054258 25.07031272 14 28 C11.03 28 8.06 28 5 28 C4.97494385 27.37432129 4.9498877 26.74864258 4.92407227 26.10400391 C4.80824727 23.27745381 4.68546015 20.45124831 4.5625 17.625 C4.52318359 16.64015625 4.48386719 15.6553125 4.44335938 14.640625 C4.38051758 13.22910156 4.38051758 13.22910156 4.31640625 11.7890625 C4.27974854 10.91975098 4.24309082 10.05043945 4.20532227 9.15478516 C4.12598456 6.9516738 4.12598456 6.9516738 3 5 C3.33 4.34 3.66 3.68 4 3 C3.01 3.33 2.02 3.66 1 4 C0.67 2.68 0.34 1.36 0 0 Z " fill="#1E1E1E" transform="translate(200,372)"/>
<path d="M0 0 C0 8.91 0 17.82 0 27 C-2.97 27 -5.94 27 -9 27 C-9.33 26.34 -9.66 25.68 -10 25 C-10.66 24.67 -11.32 24.34 -12 24 C-11.01 22.515 -11.01 22.515 -10 21 C-9.831017 18.45666263 -9.76656592 16.03846207 -9.8125 13.5 C-9.8134668 12.48486328 -9.8134668 12.48486328 -9.81445312 11.44921875 C-9.84178397 8.36994397 -10.01967491 5.94097526 -11 3 C-7.83370093 -0.83288835 -4.68080329 -1.56026776 0 0 Z " fill="#161616" transform="translate(382,373)"/>
<path d="M0 0 C2.62457268 2.62457268 1.49310913 9.95058396 1.625 13.5 C1.6765625 14.67949219 1.728125 15.85898437 1.78125 17.07421875 C1.82507813 18.19441406 1.86890625 19.31460937 1.9140625 20.46875 C1.9548291 21.50451172 1.9955957 22.54027344 2.03759766 23.60742188 C2 26 2 26 1 27 C-1.97 27 -4.94 27 -8 27 C-8.33 18.09 -8.66 9.18 -9 0 C-5.90842747 -1.54578627 -3.31526981 -0.60277633 0 0 Z " fill="#171717" transform="translate(332,373)"/>
<path d="M0 0 C26.73 0 53.46 0 81 0 C81 20.79 81 41.58 81 63 C80.67 63 80.34 63 80 63 C80 42.54 80 22.08 80 1 C53.93 1 27.86 1 1 1 C1.144375 10.508125 1.28875 20.01625 1.4375 29.8125 C1.48060303 32.8131958 1.52370605 35.8138916 1.56811523 38.90551758 C1.60623162 41.27686155 1.64470019 43.6481999 1.68359375 46.01953125 C1.70006958 47.25650757 1.71654541 48.49348389 1.73352051 49.76794434 C1.75370239 50.94514038 1.77388428 52.12233643 1.79467773 53.33520508 C1.81022202 54.35890701 1.8257663 55.38260895 1.84178162 56.43733215 C1.89715622 59.12007976 1.89715622 59.12007976 3 62 C2.34 62.66 1.68 63.32 1 64 C-0.36239076 61.27521848 -0.11969958 59.13159145 -0.11352539 56.08154297 C-0.11340454 54.82301514 -0.11328369 53.5644873 -0.11315918 52.26782227 C-0.10812321 50.92594351 -0.1029566 49.58406524 -0.09765625 48.2421875 C-0.09664917 47.02539307 -0.09564209 45.80859863 -0.09460449 44.55493164 C-0.08935922 39.99494489 -0.07539804 35.43497153 -0.0625 30.875 C-0.041875 20.68625 -0.02125 10.4975 0 0 Z " fill="#989898" transform="translate(280,288)"/>
<path d="M0 0 C0.99 0.33 1.98 0.66 3 1 C5.63804589 0.60602665 5.63804589 0.60602665 8 0 C8 0.66 8 1.32 8 2 C8.66 2.33 9.32 2.66 10 3 C9.67 7.29 9.34 11.58 9 16 C8.67 16 8.34 16 8 16 C8 14.35 8 12.7 8 11 C6.02 10.34 4.04 9.68 2 9 C2 14.28 2 19.56 2 25 C1.67 25 1.34 25 1 25 C0.67 16.75 0.34 8.5 0 0 Z " fill="#636363" transform="translate(332,372)"/>
<path d="M0 0 C1.91015625 0.23046875 1.91015625 0.23046875 3.91015625 2.23046875 C3.25015625 4.54046875 2.59015625 6.85046875 1.91015625 9.23046875 C1.58015625 8.57046875 1.25015625 7.91046875 0.91015625 7.23046875 C-1.06984375 7.23046875 -3.04984375 7.23046875 -5.08984375 7.23046875 C-4.75984375 8.22046875 -4.42984375 9.21046875 -4.08984375 10.23046875 C-5.07984375 10.72546875 -5.07984375 10.72546875 -6.08984375 11.23046875 C-6.74984375 10.57046875 -7.40984375 9.91046875 -8.08984375 9.23046875 C-7.42984375 9.23046875 -6.76984375 9.23046875 -6.08984375 9.23046875 C-6.27546875 7.93109375 -6.46109375 6.63171875 -6.65234375 5.29296875 C-6.96875 3.078125 -6.96875 3.078125 -7.08984375 1.23046875 C-5.19495423 -0.66442077 -2.51845229 0.05027763 0 0 Z " fill="#4C4C4C" transform="translate(273.08984375,363.76953125)"/>
<path d="M0 0 C0.721875 0.00257813 1.44375 0.00515625 2.1875 0.0078125 C2.909375 0.00523437 3.63125 0.00265625 4.375 0 C6.1875 0.1328125 6.1875 0.1328125 7.1875 1.1328125 C7.375 4.0703125 7.375 4.0703125 7.1875 7.1328125 C6.5275 7.7928125 5.8675 8.4528125 5.1875 9.1328125 C5.1875 8.4728125 5.1875 7.8128125 5.1875 7.1328125 C4.589375 7.4628125 3.99125 7.7928125 3.375 8.1328125 C1.1875 9.1328125 1.1875 9.1328125 -1.8125 9.1328125 C-2.69140625 2.98046875 -2.69140625 2.98046875 -2.8125 1.1328125 C-1.8125 0.1328125 -1.8125 0.1328125 0 0 Z " fill="#4D4D4D" transform="translate(158.8125,363.8671875)"/>
<path d="M0 0 C0.33 0 0.66 0 1 0 C1.01030746 0.71996658 1.02061493 1.43993317 1.03123474 2.18171692 C1.12919135 8.96500327 1.23170327 15.74820711 1.33933926 22.53134632 C1.39451576 26.0186684 1.44792726 29.50599895 1.49731445 32.9934082 C1.55416255 37.00220847 1.61867048 41.01085357 1.68359375 45.01953125 C1.70030624 46.27272659 1.71701874 47.52592194 1.73423767 48.8170929 C1.75418289 49.97806992 1.77412811 51.13904694 1.79467773 52.33520508 C1.81022202 53.35890701 1.8257663 54.38260895 1.84178162 55.43733215 C1.89715622 58.12007976 1.89715622 58.12007976 3 61 C2.34 61.66 1.68 62.32 1 63 C-0.35144654 60.29710692 -0.11975165 58.19930194 -0.11352539 55.17333984 C-0.11341209 53.34166763 -0.11341209 53.34166763 -0.11329651 51.47299194 C-0.10818952 50.13564005 -0.10297352 48.79828857 -0.09765625 47.4609375 C-0.0957914 46.09616141 -0.09436781 44.73138466 -0.09336853 43.36660767 C-0.08954863 39.77284907 -0.07972283 36.17913083 -0.06866455 32.58538818 C-0.05843911 28.91891018 -0.05386848 25.25242565 -0.04882812 21.5859375 C-0.0381001 14.39060659 -0.02102999 7.19530895 0 0 Z " fill="#878787" transform="translate(280,289)"/>
<path d="M0 0 C0.99 0.33 1.98 0.66 3 1 C3 3.64 3 6.28 3 9 C3.66 9.33 4.32 9.66 5 10 C4.67 7.03 4.34 4.06 4 1 C5.32 0.67 6.64 0.34 8 0 C7.34 3.96 6.68 7.92 6 12 C4.68 12 3.36 12 2 12 C1.66430703 10.37548581 1.3315204 8.75037083 1 7.125 C0.814375 6.22007812 0.62875 5.31515625 0.4375 4.3828125 C0 2 0 2 0 0 Z " fill="#9C9C9C" transform="translate(140,372)"/>
<path d="M0 0 C0 0.66 0 1.32 0 2 C0.66 2.33 1.32 2.66 2 3 C1.67 7.29 1.34 11.58 1 16 C0.67 16 0.34 16 0 16 C0 14.35 0 12.7 0 11 C-1.32 10.34 -2.64 9.68 -4 9 C-3.01 9 -2.02 9 -1 9 C-1 6.69 -1 4.38 -1 2 C-2.32 1.67 -3.64 1.34 -5 1 C-2 0 -2 0 0 0 Z " fill="#B2B2B2" transform="translate(340,372)"/>
<path d="M0 0 C0.66 0 1.32 0 2 0 C3.51708428 11.52164009 3.51708428 11.52164009 1 17 C0.01 17 -0.98 17 -2 17 C-2 16.34 -2 15.68 -2 15 C-1.01 15 -0.02 15 1 15 C0.67 14.443125 0.34 13.88625 0 13.3125 C-1.1309601 10.69715478 -1.15662974 8.8193354 -1 6 C-0.67 6 -0.34 6 0 6 C0 4.02 0 2.04 0 0 Z " fill="#4B4B4B" transform="translate(356,383)"/>
<path d="M0 0 C0.33 0 0.66 0 1 0 C1.06058594 0.83144531 1.12117188 1.66289062 1.18359375 2.51953125 C1.26738281 3.60621094 1.35117187 4.69289063 1.4375 5.8125 C1.51871094 6.89144531 1.59992188 7.97039062 1.68359375 9.08203125 C1.90212461 12.05989905 1.90212461 12.05989905 3 15 C2.34 15.66 1.68 16.32 1 17 C-0.53266582 13.93466836 -0.10276471 10.73245728 -0.0625 7.375 C-0.05798828 6.66859375 -0.05347656 5.9621875 -0.04882812 5.234375 C-0.03703875 3.48954725 -0.01910324 1.744763 0 0 Z " fill="#7A7A7A" transform="translate(280,335)"/>
<path d="M0 0 C0.99 0.33 1.98 0.66 3 1 C3 2.65 3 4.3 3 6 C1.68 5.67 0.36 5.34 -1 5 C-0.67 3.35 -0.34 1.7 0 0 Z " fill="#565656" transform="translate(157,364)"/>
<path d="M0 0 C2.625 0.375 2.625 0.375 5 1 C3.824375 1.928125 3.824375 1.928125 2.625 2.875 C0.03162353 4.89858661 0.03162353 4.89858661 -2 7 C-2.125 4.625 -2.125 4.625 -2 2 C-1.34 1.34 -0.68 0.68 0 0 Z " fill="#424242" transform="translate(303,372)"/>
<path d="M0 0 C3 1 3 1 3 1 Z " fill="#EFEFEF" transform="translate(153,370)"/>
<path d="M0 0 C2 1 2 1 2 1 Z " fill="#F6F6F6" transform="translate(227,363)"/>
<path d="" fill="#FFFFFF" transform="translate(0,0)"/>
<path d="" fill="#FFFFFF" transform="translate(0,0)"/>
<path d="" fill="#FFFFFF" transform="translate(0,0)"/>
<path d="" fill="#FFFFFF" transform="translate(0,0)"/>
<path d="" fill="#FFFFFF" transform="translate(0,0)"/>
<path d="" fill="#FFFFFF" transform="translate(0,0)"/>
<path d="" fill="#FFFFFF" transform="translate(0,0)"/>
<path d="" fill="#FFFFFF" transform="translate(0,0)"/>
<path d="" fill="#FFFFFF" transform="translate(0,0)"/>
<path d="" fill="#FFFFFF" transform="translate(0,0)"/>
<path d="" fill="#FFFFFF" transform="translate(0,0)"/>
<path d="" fill="#FFFFFF" transform="translate(0,0)"/>
<path d="" fill="#FFFFFF" transform="translate(0,0)"/>
<path d="" fill="#FFFFFF" transform="translate(0,0)"/>
<path d="" fill="#FFFFFF" transform="translate(0,0)"/>
<path d="" fill="#FFFFFF" transform="translate(0,0)"/>
<path d="" fill="#FFFFFF" transform="translate(0,0)"/>
<path d="" fill="#FFFFFF" transform="translate(0,0)"/>
<path d="" fill="#E6E6E6" transform="translate(0,0)"/>
<path d="" fill="#FFFFFF" transform="translate(0,0)"/>
<path d="" fill="#FFFFFF" transform="translate(0,0)"/>
<path d="" fill="#FFFFFF" transform="translate(0,0)"/>
<path d="" fill="#FFFFFF" transform="translate(0,0)"/>
<path d="" fill="#F2F2F2" transform="translate(0,0)"/>
<path d="" fill="#FFFFFF" transform="translate(0,0)"/>
<path d="" fill="#FFFFFF" transform="translate(0,0)"/>
<path d="" fill="#FFFFFF" transform="translate(0,0)"/>
<path d="" fill="#FFFFFF" transform="translate(0,0)"/>
<path d="" fill="#FFFFFF" transform="translate(0,0)"/>
<path d="" fill="#FFFFFF" transform="translate(0,0)"/>
<path d="" fill="#FFFFFF" transform="translate(0,0)"/>
<path d="" fill="#FFFFFF" transform="translate(0,0)"/>
<path d="" fill="#FFFFFF" transform="translate(0,0)"/>
<path d="" fill="#FFFFFF" transform="translate(0,0)"/>
<path d="" fill="#FFFFFF" transform="translate(0,0)"/>
<path d="" fill="#FFFFFF" transform="translate(0,0)"/>
<path d="" fill="#FFFFFF" transform="translate(0,0)"/>
<path d="" fill="#FFFFFF" transform="translate(0,0)"/>
<path d="" fill="#FFFFFF" transform="translate(0,0)"/>
<path d="" fill="#FFFFFF" transform="translate(0,0)"/>
<path d="" fill="#FFFFFF" transform="translate(0,0)"/>
<path d="" fill="#FFFFFF" transform="translate(0,0)"/>
<path d="" fill="#FFFFFF" transform="translate(0,0)"/>
<path d="" fill="#FFFFFF" transform="translate(0,0)"/>
<path d="" fill="#FFFFFF" transform="translate(0,0)"/>
<path d="" fill="#FFFFFF" transform="translate(0,0)"/>
<path d="" fill="#FFFFFF" transform="translate(0,0)"/>
<path d="" fill="#FFFFFF" transform="translate(0,0)"/>
<path d="" fill="#FFFFFF" transform="translate(0,0)"/>
<path d="" fill="#FFFFFF" transform="translate(0,0)"/>
<path d="" fill="#FFFFFF" transform="translate(0,0)"/>
<path d="" fill="#FFFFFF" transform="translate(0,0)"/>
<path d="" fill="#FFFFFF" transform="translate(0,0)"/>
<path d="" fill="#FFFFFF" transform="translate(0,0)"/>
<path d="" fill="#FFFFFF" transform="translate(0,0)"/>
<path d="" fill="#FFFFFF" transform="translate(0,0)"/>
<path d="" fill="#FFFFFF" transform="translate(0,0)"/>
<path d="" fill="#FFFFFF" transform="translate(0,0)"/>
<path d="" fill="#FFFFFF" transform="translate(0,0)"/>
<path d="" fill="#FFFFFF" transform="translate(0,0)"/>
<path d="" fill="#FFFFFF" transform="translate(0,0)"/>
<path d="" fill="#FFFFFF" transform="translate(0,0)"/>
<path d="" fill="#FFFFFF" transform="translate(0,0)"/>
<path d="" fill="#FFFFFF" transform="translate(0,0)"/>
<path d="" fill="#FFFFFF" transform="translate(0,0)"/>
<path d="" fill="#FFFFFF" transform="translate(0,0)"/>
<path d="" fill="#FFFFFF" transform="translate(0,0)"/>
<path d="" fill="#FFFFFF" transform="translate(0,0)"/>
<path d="" fill="#FFFFFF" transform="translate(0,0)"/>
<path d="" fill="#FFFFFF" transform="translate(0,0)"/>
<path d="" fill="#FFFFFF" transform="translate(0,0)"/>
<path d="" fill="#FFFFFF" transform="translate(0,0)"/>
<path d="" fill="#FFFFFF" transform="translate(0,0)"/>
<path d="" fill="#FFFFFF" transform="translate(0,0)"/>
<path d="" fill="#FFFFFF" transform="translate(0,0)"/>
<path d="" fill="#FFFFFF" transform="translate(0,0)"/>
<path d="" fill="#FFFFFF" transform="translate(0,0)"/>
<path d="" fill="#FFFFFF" transform="translate(0,0)"/>
<path d="" fill="#FFFFFF" transform="translate(0,0)"/>
<path d="" fill="#FFFFFF" transform="translate(0,0)"/>
<path d="" fill="#FFFFFF" transform="translate(0,0)"/>
<path d="" fill="#FFFFFF" transform="translate(0,0)"/>
<path d="" fill="#FFFFFF" transform="translate(0,0)"/>
<path d="" fill="#FFFFFF" transform="translate(0,0)"/>
<path d="" fill="#FFFFFF" transform="translate(0,0)"/>
<path d="" fill="#FFFFFF" transform="translate(0,0)"/>
<path d="" fill="#FFFFFF" transform="translate(0,0)"/>
<path d="" fill="#FFFFFF" transform="translate(0,0)"/>
</svg>
